<svg version="1.1" xmlns="http://www.w3.org/2000/svg" xmlns:xlink="http://www.w3.org/1999/xlink" x="0px" y="0px" viewBox="0 0 1000 1000" enable-background="new 0 0 1000 1000" xml:space="preserve">
<metadata> Svg Vector Icons : http://www.onlinewebfonts.com/icon </metadata>
  <g><g transform="translate(0.000000,511.000000) scale(0.100000,-0.100000)"><path d="M2119.7,4298.8c-139.7-63.2-181.9-158.9-181.9-405.8V3713h-497.7c-287.2,0-537.9-9.6-597.3-21.1c-245-51.7-488.2-227.8-616.4-444.1c-134-225.9-126.3-40.2-126.3-3438.2c0-2161.3,5.7-3093.6,21.1-3164.4c72.7-352.2,369.5-649,721.7-721.7c143.6-30.6,8172.4-30.6,8315.9,0c350.3,72.8,649,371.4,721.7,721.7c15.3,70.8,21,1001.2,19.1,3177.8c0,2844.7-1.9,3085.9-32.5,3202.7c-86.1,329.3-369.5,595.4-708.3,666.2c-59.4,11.5-308.2,21.1-597.3,21.1h-493.9l-7.7,208.7c-3.8,176.1-11.5,218.2-45.9,262.3c-74.7,101.5-135.9,132.1-256.5,132.1c-120.6,0-181.9-30.6-256.5-132.1c-34.5-44-42.1-86.1-45.9-262.3l-7.7-208.7H5000.8H2554.3l-7.7,208.7c-5.7,225.9-23,269.9-134,352.2C2347.5,4321.7,2196.3,4335.1,2119.7,4298.8z M9116.7,3058.2c57.4-28.7,101.5-70.8,128.3-120.6c42.1-72.7,44-97.6,44-492v-417.3H5000.8H712.7v417.3c0,394.4,1.9,419.3,44,492c26.8,49.8,70.8,91.9,128.3,120.6l84.2,42.1h4031.6h4031.6L9116.7,3058.2z M9289-906.4v-2324l-44-82.3c-30.6-57.4-70.8-97.6-128.3-128.3l-82.3-44H5000.8H967.3l-82.3,44c-57.4,30.6-97.6,70.8-128.3,128.3l-44,82.3v2324v2322.1h4288.1H9289V-906.4z"/><path d="M3651.2,776.3c-78.5-34.5-158.9-132.1-174.2-210.6c-5.7-36.4-7.7-160.8-3.8-275.7c5.7-229.7,23-271.8,137.8-356.1c49.8-38.3,78.5-40.2,470.9-40.2s421.2,1.9,470.9,40.2C4675.4,24,4685,54.6,4685,343.7c0,289.1-9.6,319.7-132.1,409.7c-47.9,36.4-82.3,40.2-448,44C3804.4,801.2,3695.2,797.4,3651.2,776.3z"/><path d="M5489,776.3c-78.5-34.5-158.9-132.1-174.2-210.6c-5.7-36.4-7.7-160.8-3.8-275.7c5.7-229.7,23-271.8,137.8-356.1c49.8-38.3,78.5-40.2,470.9-40.2s421.2,1.9,470.9,40.2c122.5,90,132.1,120.6,132.1,409.7c0,289.1-9.6,319.7-132.1,409.7c-47.9,36.4-82.3,40.2-447.9,44C5642.1,801.2,5533,797.4,5489,776.3z"/><path d="M7326.8,776.3c-78.5-34.5-158.9-132.1-174.2-210.6c-5.8-36.4-7.7-160.8-3.8-275.7c5.7-229.7,23-271.8,137.8-356.1c49.8-38.3,78.5-40.2,470.9-40.2c392.4,0,421.2,1.9,470.9,40.2c122.5,90,132.1,120.6,132.1,409.7c0,289.1-9.6,319.7-132.1,409.7c-47.9,36.4-82.3,40.2-447.9,44C7479.9,801.2,7370.8,797.4,7326.8,776.3z"/><path d="M1813.4-602c-78.5-34.5-158.9-132.1-174.2-210.6c-5.7-36.4-7.7-160.8-3.8-275.6c5.7-229.7,23-271.9,137.8-356.1c49.8-38.3,78.5-40.2,470.9-40.2s421.2,1.9,470.9,40.2c122.5,90,132.1,120.6,132.1,409.7c0,289.1-9.6,319.7-132.1,409.7c-47.9,36.4-82.3,40.2-448,44C1966.6-577.1,1857.5-580.9,1813.4-602z"/><path d="M3651.2-602c-78.5-34.5-158.9-132.1-174.2-210.6c-5.7-36.4-7.7-160.8-3.8-275.6c5.7-229.7,23-271.9,137.8-356.1c49.8-38.3,78.5-40.2,470.9-40.2s421.2,1.9,470.9,40.2c122.5,90,132.1,120.6,132.1,409.7c0,289.1-9.6,319.7-132.1,409.7c-47.9,36.4-82.3,40.2-448,44C3804.4-577.1,3695.2-580.9,3651.2-602z"/><path d="M5489-602c-78.5-34.5-158.9-132.1-174.2-210.6c-5.7-36.4-7.7-160.8-3.8-275.6c5.7-229.7,23-271.9,137.8-356.1c49.8-38.3,78.5-40.2,470.9-40.2s421.2,1.9,470.9,40.2c122.5,90,132.1,120.6,132.1,409.7c0,289.1-9.6,319.7-132.1,409.7c-47.9,36.4-82.3,40.2-447.9,44C5642.1-577.1,5533-580.9,5489-602z"/><path d="M7326.8-602c-78.5-34.5-158.9-132.1-174.2-210.6c-5.8-36.4-7.7-160.8-3.8-275.6c5.7-229.7,23-271.9,137.8-356.1c49.8-38.3,78.5-40.2,470.9-40.2c392.4,0,421.2,1.9,470.9,40.2c122.5,90,132.1,120.6,132.1,409.7c0,289.1-9.6,319.7-132.1,409.7c-47.9,36.4-82.3,40.2-447.9,44C7479.9-577.1,7370.8-580.9,7326.8-602z"/><path d="M1813.4-1980.3c-78.5-34.5-158.9-132.1-174.2-210.6c-5.7-36.4-7.7-160.8-3.8-275.7c5.7-229.7,23-271.8,137.8-356.1c49.8-38.3,78.5-40.2,470.9-40.2s421.2,1.9,470.9,40.2c122.5,90,132.1,120.6,132.1,409.7s-9.6,319.7-132.1,409.7c-47.9,36.4-82.3,40.2-448,44C1966.6-1955.4,1857.5-1959.2,1813.4-1980.3z"/><path d="M3651.2-1980.3c-78.5-34.5-158.9-132.1-174.2-210.6c-5.7-36.4-7.7-160.8-3.8-275.7c5.7-229.7,23-271.8,137.8-356.1c49.8-38.3,78.5-40.2,470.9-40.2s421.2,1.9,470.9,40.2c122.5,90,132.1,120.6,132.1,409.7s-9.6,319.7-132.1,409.7c-47.9,36.4-82.3,40.2-448,44C3804.4-1955.4,3695.2-1959.2,3651.2-1980.3z"/><path d="M5489-1980.3c-78.5-34.5-158.9-132.1-174.2-210.6c-5.7-36.4-7.7-160.8-3.8-275.7c5.7-229.7,23-271.8,137.8-356.1c49.8-38.3,78.5-40.2,470.9-40.2s421.2,1.9,470.9,40.2c122.5,90,132.1,120.6,132.1,409.7s-9.6,319.7-132.1,409.7c-47.9,36.4-82.3,40.2-447.9,44C5642.1-1955.4,5533-1959.2,5489-1980.3z"/></g></g>
</svg>
