<svg version="1.1" xmlns="http://www.w3.org/2000/svg" xmlns:xlink="http://www.w3.org/1999/xlink" x="0px" y="0px" viewBox="0 0 1000 1000" enable-background="new 0 0 1000 1000" xml:space="preserve">
<metadata> Svg Vector Icons : http://www.onlinewebfonts.com/icon </metadata>
  <g><g><g><g><path d="M881.6,116.9V37.7h-33.3v79.2h-120V37.7H695v79.2H561.1V37.7h-33.3v79.2H388.7V37.7h-33.3v79.2H222.1V37.7h-33.3v79.2H80.4v446.7h30.3V335.2h849.2v596.9H110.6V662.5H80.4v299.9H990V116.9H881.6z M959.8,304.9H110.6V147.1h78.1v71.2h33.3v-71.2h133.3v71.2h33.3v-71.2h139.1v71.2h33.3v-71.2H695v71.2h33.3v-71.2h120v71.2h33.3v-71.2h78.2L959.8,304.9L959.8,304.9L959.8,304.9z"/></g><g><polygon points="291.9,779.8 312.9,801 500.8,613 312.9,425.1 291.9,446.2 443.8,598.2 10,598.2 10,627.9 443.8,627.9 "/></g></g></g><g></g><g></g><g></g><g></g><g></g><g></g><g></g><g></g><g></g><g></g><g></g><g></g><g></g><g></g><g></g></g>
</svg>
