<svg version="1.1" xmlns="http://www.w3.org/2000/svg" xmlns:xlink="http://www.w3.org/1999/xlink" x="0px" y="0px" viewBox="0 0 1000 1000" enable-background="new 0 0 1000 1000" xml:space="preserve">
<metadata> Svg Vector Icons : http://www.onlinewebfonts.com/icon </metadata>
  <g><g transform="translate(0.000000,511.000000) scale(0.100000,-0.100000)"><path d="M6844.7,3506.7c-906.1-165-2678.9-483.3-3938.2-706.3c-1259.3-225.4-2335-425.2-2393.1-443.8c-223-69.7-390.3-278.8-411.2-513.5c-7-79,2.3-218.4,25.6-334.6c32.5-174.2,37.2-476.3,37.2-2416.3c0-2179.3,2.3-2218.8,48.8-2321.1c58.1-127.8,165-244,288.1-309l92.9-51.1h4205.3h4205.4l109.2,62.7c58.1,37.2,139.4,104.6,178.9,151c139.4,167.3,141.7,195.2,141.7,1284.8v989.8l83.6,30.2c202.1,72,381,327.6,381,541.3c0,139.4-664.5,3856.8-708.6,3961.4c-92.9,223-332.2,381-566.9,376.4C8552.4,3806.5,7753.2,3671.7,6844.7,3506.7z M8729,3425.4c106.9-51.1,134.8-113.8,192.9-415.9c69.7-364.8,74.3-346.2-83.7-327.6c-195.1,20.9-439.1,146.4-590.1,297.4c-120.8,120.8-248.6,332.2-220.7,360.1c13.9,13.9,513.5,116.2,590.1,120.8C8636.1,3462.6,8684.9,3446.3,8729,3425.4z M7688.1,3188.4c41.8-141.7,192.8-353.2,360.1-508.8c237-220.7,553-355.5,864.3-362.4c90.6-4.6,130.1-13.9,139.4-39.5c13.9-53.4,313.7-1735.6,313.7-1772.7c0-16.3-88.3-76.7-197.5-130.1c-227.7-111.5-441.4-309-566.9-522.7C8499-317.6,8413-615,8413-791.5c0-76.7-7-137.1-16.3-137.1c-16.3,0-868.9-153.3-4296-769c-920.1-165-1693.7-299.7-1719.3-297.4c-32.5,0-69.7,53.4-134.8,190.5c-206.8,427.5-629.6,711-1136.1,757.4L948-1033.2L790-161.9c-88.3,478.6-158,892.2-158,917.7c0,34.9,44.1,67.4,190.5,137.1c439.1,206.8,757.4,697,759.8,1168.7c0,65,9.3,125.5,18.6,132.4c9.3,4.7,843.4,158,1851.7,339.2c1010.7,181.2,2342,420.5,2962.3,534.4c620.4,111.5,1154.7,204.5,1187.2,206.8C7653.3,3276.7,7667.2,3262.8,7688.1,3188.4z M1233.7,2073.2c0-104.6-65.1-327.6-132.4-450.7C994.4,1427.3,615.7,1116,560,1178.7c-9.3,9.3-39.5,155.7-69.7,322.9c-48.8,285.8-51.1,306.7-13.9,376.4c20.9,39.5,62.7,90.6,92.9,111.5c41.8,25.6,478.6,125.5,648.2,146.4C1226.8,2138.3,1233.7,2108.1,1233.7,2073.2z M9502.7-220c55.8-329.9,51.1-378.7-48.8-471.6c-46.5-41.8-127.8-65.1-367.1-109.2c-169.6-32.5-316-53.4-323-46.5c-25.5,25.6,39.5,309,99.9,436.8c34.9,72,113.8,188.2,176.6,255.6c109.2,120.8,369.4,285.8,397.3,253.3C9444.6,89,9474.8-55,9502.7-220z M666.8-1493.2c90.6-515.8,120.8-638.9,176.6-734.2c109.2-192.9,292.7-302,515.8-304.4c62.7,0,1807.6,304.4,3880.1,673.8c2070.1,371.7,3782.5,678.4,3801.1,680.7c25.5,2.3,37.2-20.9,41.8-90.6l7-95.3l-139.4-27.9c-518.1-102.2-964.2-573.9-1061.8-1122.2l-14-88.3H4321.5c-3815,0-3643.1-4.6-3749.9,116.2c-44.1,48.8-46.5,88.3-51.1,892.2c-2.3,501.8,4.6,815.5,16.3,780.6C548.3-845,606.4-1149.3,666.8-1493.2z M1263.9-1428.1c188.2-48.8,306.7-116.2,453.1-253.2c116.2-109.2,260.2-316,260.2-376.4c0-11.6-144.1-48.8-320.6-76.7c-302-51.1-325.3-53.5-395-16.3c-39.5,20.9-88.3,60.4-106.9,90.6c-30.2,46.5-130.1,525.1-130.1,625C1024.6-1384,1085.1-1381.7,1263.9-1428.1z M9086.8-2050.8c0-499.5-51.1-550.6-543.7-550.6h-299.7l13.9,95.3c30.2,225.4,276.5,555.3,504.2,671.4c120.8,62.7,283.5,116.2,309,99.9C9079.9-1739.5,9086.8-1883.5,9086.8-2050.8z M4800.1-2938.3c2288.6,0,4186.8,9.3,4223.9,20.9c58.1,18.6,62.7,13.9,62.7-46.5c0-90.6-74.3-209.1-160.3-253.3c-62.7-32.5-497.2-34.9-4158.9-30.2l-4091.5,7l-72,72c-48.8,48.8-74.3,102.2-83.6,171.9l-13.9,99.9l67.4-20.9C613.4-2929,2414-2938.3,4800.1-2938.3z"/><path d="M4628.2,2591.3c-694.7-151-1217.5-580.8-1468.4-1208.2c-99.9-250.9-137.1-448.4-137.1-736.5c0-564.6,192.8-1029.3,592.5-1424.2c376.4-369.4,859.7-569.2,1380.1-569.2c901.5,0,1654.3,571.6,1921.5,1456.8c83.7,278.8,90.6,734.2,11.6,1017.6c-125.4,469.3-418.2,887.5-799.2,1147.7C5704,2565.8,5097.5,2691.2,4628.2,2591.3z M5404.2,2219.6c76.7-18.6,227.7-79,336.9-132.4c160.3-79,237-134.8,406.6-306.7c171.9-171.9,230-248.6,306.7-408.9C6579.9,1113.7,6624,920.8,6624,642c0-290.4-48.8-497.2-169.6-731.9c-223.1-429.8-597.1-731.9-1061.8-855c-239.3-65-634.3-53.4-871.3,23.2c-264.9,88.3-460,209.1-676.1,425.2c-158,155.7-209.1,223-295.1,406.6c-195.2,399.6-227.7,815.5-99.9,1217.5c188.2,587.8,704,1029.2,1312.7,1126.8C4930.3,2280,5225.3,2263.7,5404.2,2219.6z"/><path d="M4649.1,2022.1c-30.2-30.2-46.5-76.7-46.5-134.8c0-79-11.6-95.3-120.8-167.3c-134.8-92.9-260.2-260.2-299.7-401.9c-34.8-132.4-13.9-357.8,44.1-471.7c48.8-95.3,188.2-237,288.1-290.4c27.9-16.3,116.2-46.5,192.8-67.4l139.4-39.5l65-343.9c46.5-253.2,55.8-350.8,37.2-362.4c-16.3-9.3-111.5-30.2-213.7-46.5c-276.5-41.8-367.1-155.7-244-311.3c53.4-67.4,81.3-69.7,436.8-20.9c99.9,11.6,106.9,9.3,134.8-55.8c32.5-74.4,139.4-130.1,209.1-104.6c86,30.2,120.8,83.6,120.8,181.2c0,81.3,9.3,102.2,55.8,123.1c99.9,46.5,248.6,195.2,311.3,316c51.1,99.9,62.7,148.7,62.7,304.4c0,218.4-46.5,325.3-195.2,460c-113.8,102.2-197.5,146.4-355.5,188.2L5148.7,807l-51.1,276.5c-25.5,153.3-55.8,313.7-62.7,360.1l-13.9,81.3l216.1,39.5c174.2,30.2,223,48.8,267.2,97.6c67.4,79,65,162.6-7,232.3c-65.1,67.4-60.4,67.4-313.7,23.2c-239.3-41.8-232.4-41.8-232.4-2.3c0,16.3-20.9,58.1-48.8,92.9C4842,2084.8,4718.8,2091.8,4649.1,2022.1z M4723.5,1160.1c48.8-271.8,51.1-299.7,7-299.7c-60.4,0-195.2,139.4-209.1,218.4c-20.9,111.5,74.4,329.9,137.1,309C4672.4,1383.2,4700.2,1280.9,4723.5,1160.1z M5450.7,240c48.8-99.9,25.5-223-60.4-318.3l-62.7-72l-14,58.1C5285.7,28.6,5230,340,5230,379.5c0,39.5,7,39.5,92.9-9.3C5374.1,340,5429.8,284.2,5450.7,240z"/><path d="M7697.4,1624.8c-376.4-185.9-374.1-741.2,2.3-924.7c120.8-58.1,306.7-65.1,429.8-11.6c408.9,169.6,408.9,778.3,0,947.9C8004.1,1689.9,7818.3,1682.9,7697.4,1624.8z"/><path d="M1888.9,597.9C1691.5,525.8,1559,333,1559,121.6c0-304.4,211.4-515.8,511.1-515.8c167.3,0,283.5,51.1,388,171.9c148.7,167.3,165,443.8,39.5,625C2369.9,586.3,2100.4,674.5,1888.9,597.9z"/></g></g>
</svg>
