<svg version="1.1" xmlns="http://www.w3.org/2000/svg" xmlns:xlink="http://www.w3.org/1999/xlink" x="0px" y="0px" viewBox="0 0 1000 1000" enable-background="new 0 0 1000 1000" xml:space="preserve">
<metadata> Svg Vector Icons : http://www.onlinewebfonts.com/icon </metadata>
  <g><g transform="translate(0.000000,359.000000) scale(0.100000,-0.100000)"><path d="M2555.9,3141.3c-67.3-69.9-75-90.6-75-256.2V2704l-194.1-10.4c-168.2-7.8-201.9-18.1-261.4-77.6c-95.7-95.7-95.7-256.2,0-351.9c56.9-59.5,95.8-72.5,256.2-82.8l186.3-12.9l12.9-186.3c10.4-160.4,23.3-199.3,85.4-258.8c95.8-98.3,251-95.7,349.4,2.6c59.5,59.5,69.9,93.2,77.6,261.4l10.4,194.1h181.2c165.6,0,186.3,7.8,256.2,75c98.3,98.3,103.5,251,12.9,357.1c-54.3,64.7-82.8,72.5-256.2,80.2l-194.1,10.4l-10.4,194.1c-7.8,173.4-15.5,201.9-80.2,256.2C2806.9,3244.8,2654.2,3239.6,2555.9,3141.3z"/><path d="M5596.6,1324.6c-201.9-38.8-473.6-108.7-608.2-152.7c-1234.4-424.4-2145.3-1444-2432.6-2730.2c-67.3-297.6-93.2-957.5-51.8-1260.3c119-833.3,481.3-1563.1,1071.4-2147.9c1123.1-1112.8,2838.9-1389.7,4249.3-688.4c491.7,245.8,1032.6,698.7,1340.5,1128.3c261.4,362.3,483.9,828.1,587.4,1221.5c72.5,279.5,163,753,144.9,768.6c-7.8,7.8-126.8,0-266.5-18.1c-380.4-51.8-848.8-41.4-1172.3,25.9C7351.2-2303.6,6450.6-1506.5,6083.2-419.6c-155.3,450.3-194.1,936.8-124.2,1521.7c18.1,152.7,25.9,282.1,18.1,287.3C5969.3,1391.9,5798.5,1363.4,5596.6,1324.6z M5399.9,351.6c80.2-1001.5,439.9-1772.7,1146.4-2453.3c657.3-634,1594.1-1019.6,2474-1022.2h235.5l-44-147.5c-147.5-476.2-434.8-952.3-781.5-1293.9c-336.4-326.1-478.8-429.6-841.1-610.7c-442.5-222.6-900.6-328.7-1407.8-328.7c-1464.7,0-2696.6,957.5-3082.1,2393.8c-191.5,714.2-85.4,1578.6,276.9,2267C3743.7-150.5,4403.6,411.1,5151.5,667.3c103.5,33.6,196.7,64.7,204.4,64.7C5363.7,732,5384.4,561.2,5399.9,351.6z"/><path d="M547.7,41C483,28.1,358.8-106.5,358.8-163.4c0-18.1-38.8-51.8-88-72.5c-111.3-46.6-170.8-132-170.8-251c0-116.5,77.6-220,178.6-243.3c54.3-10.4,80.2-36.2,93.2-85.4c25.9-100.9,85.4-157.9,188.9-176c124.2-23.3,253.6,46.6,295,160.4c18.1,51.8,56.9,95.7,95.7,111.3c121.6,46.6,163,98.3,176,220c12.9,103.5,5.2,124.2-64.7,196.7c-44,41.4-100.9,77.6-129.4,77.6c-33.6,0-56.9,25.9-72.5,80.2C824.6-18.5,682.3,66.9,547.7,41z"/></g></g>
</svg>
